<svg width="80" height="80" viewBox="0 0 80 80" fill="none" xmlns="http://www.w3.org/2000/svg">
<path d="M0 12C0 5.37258 5.37258 0 12 0H68C74.6274 0 80 5.37258 80 12V68C80 74.6274 74.6274 80 68 80H12C5.37258 80 0 74.6274 0 68V12Z" fill="#D9D9D9"/>
<path d="M36.1872 18L36.1819 18C26.172 18.053 18 26.1753 18 36.2081C18 46.238 26.1703 54.3663 36.1373 54.3663C39.8641 54.3663 43.5355 53.1816 46.6496 50.9912L56.3533 60.7067L57.0608 61.4151L57.7684 60.7067L60.7075 57.7639L61.4151 57.0555L60.7058 56.3489L51.012 46.6901C53.1996 43.6464 54.3743 39.9669 54.3743 36.1582C54.3743 26.1264 46.2021 18 36.1872 18ZM36.1373 48.2762C29.5168 48.2762 24.1348 42.8893 24.1348 36.2579C24.1348 29.6265 29.5169 24.2397 36.1373 24.2397C42.7576 24.2397 48.1397 29.6266 48.1397 36.2579C48.1397 42.8894 42.7576 48.2762 36.1373 48.2762Z" fill="#29539B" stroke="#29539B" stroke-width="2"/>
</svg>
