<svg width="31" height="31" viewBox="0 0 31 31" fill="none" xmlns="http://www.w3.org/2000/svg">
<path d="M0.9375 4.625C0.9375 2.13972 2.95222 0.125 5.4375 0.125H26.4375C28.9228 0.125 30.9375 2.13972 30.9375 4.625V25.625C30.9375 28.1103 28.9228 30.125 26.4375 30.125H5.4375C2.95222 30.125 0.9375 28.1103 0.9375 25.625V4.625Z" fill="#D9D9D9"/>
<path d="M7.5 12.8512L7.5 12.8517C7.50538 15.1028 8.68048 17.1846 10.5919 18.324L10.5922 18.3242L14.9867 20.9329V24.5V24.6875H15.1742H17.4778H17.6653V24.5V18.334L20.7949 16.5656L20.795 16.5655C21.767 16.0161 22.5766 15.2122 23.1399 14.2378C23.7034 13.2633 24.0002 12.1535 24 11.0235C24 11.0235 24 11.0234 24 11.0234V9.85147V9.66397H23.8125H21.5089H21.3214V9.85147V11.0235C21.3214 11.6694 21.1516 12.3036 20.83 12.86L20.8299 12.8601C20.5085 13.4164 20.0468 13.8748 19.4933 14.1883C19.4932 14.1883 19.4932 14.1883 19.4931 14.1883L17.6653 15.22V5.75V5.5625H17.4778H15.1742H14.9867V5.75V10.7706L14.8509 10.6916L14.8508 10.6915C14.307 10.3753 13.8545 9.91824 13.5396 9.36651C13.2246 8.81453 13.0584 8.1875 13.0581 7.54872V6.33593V6.14843H12.8706H10.567H10.3795V6.33593V7.54884V7.54887C10.3797 8.66581 10.6699 9.76301 11.2212 10.7293C11.7723 11.6958 12.5651 12.4971 13.5193 13.0519L13.5194 13.052L14.9867 13.903V17.7842L11.9441 15.9776L11.9441 15.9776C10.8526 15.3299 10.1795 14.1402 10.1786 12.8515V11.6096V11.4221H9.99111H7.68751H7.50001L7.50001 11.6096L7.5 12.8512Z" fill="#29539B" stroke="#29539B" stroke-width="0.375"/>
</svg>
