<svg width="144" height="131" viewBox="0 0 144 131" fill="none" xmlns="http://www.w3.org/2000/svg">
<g clip-path="url(#clip0_179_209)">
<mask id="mask0_179_209" style="mask-type:alpha" maskUnits="userSpaceOnUse" x="0" y="0" width="183" height="167">
<rect width="182.702" height="166.039" fill="url(#paint0_linear_179_209)"/>
</mask>
<g mask="url(#mask0_179_209)">
<g opacity="0.2">
<path d="M46.311 146.963H10.3927C7.43889 146.963 4.60604 145.788 2.51736 143.698C0.428678 141.607 -0.744729 138.771 -0.744729 135.814C-0.758204 133.861 -0.258918 131.939 0.70314 130.24L75.4355 -3.10021C75.9159 -3.96107 76.5159 -4.74934 77.2175 -5.44146C77.9139 -6.16199 78.7226 -6.76444 79.612 -7.22527C81.3052 -8.20379 83.2257 -8.71893 85.1808 -8.71893C87.1358 -8.71893 89.0564 -8.20379 90.7495 -7.22527C91.6125 -6.74899 92.4006 -6.14792 93.0884 -5.44146C93.8579 -4.70594 94.5147 -3.86065 95.0374 -2.93298L169.714 130.24C170.698 131.946 171.214 133.883 171.207 135.853C171.2 137.824 170.672 139.757 169.676 141.457C168.68 143.156 167.252 144.561 165.537 145.528C163.822 146.496 161.881 146.991 159.913 146.963H124.106C120.38 139.877 114.764 133.963 107.883 129.879C101.002 125.795 93.1239 123.701 85.1251 123.829C77.125 123.695 69.2448 125.786 62.3622 129.871C55.4796 133.955 49.8651 139.872 46.144 146.963H46.311Z" fill="url(#paint1_linear_179_209)"/>
<path opacity="0.27" d="M75.717 94.0061L85.8521 81.2407H91.0867L81.7313 93.9504L75.717 94.0061Z" fill="url(#paint2_linear_179_209)"/>
<path opacity="0.22" d="M83.7353 62.399H99.4948L95.0399 67.9735L79.6702 67.5833L83.7353 62.399Z" fill="url(#paint3_linear_179_209)"/>
<path d="M83.7854 62.399L66.3553 84.6966C65.4973 85.5984 65.0188 86.796 65.0188 88.0413C65.0188 89.2866 65.4973 90.4841 66.3553 91.3859C67.3498 92.5141 68.6071 93.379 70.0157 93.9041C71.4243 94.4292 72.9405 94.5982 74.4299 94.3961L87.0153 78.8435L99.4892 62.399H83.7854Z" fill="white"/>
<path d="M85.8482 81.3522H100.215C100.215 81.3522 104.392 82.3556 105.506 84.9199C106.119 86.5934 106.119 88.4305 105.506 90.1041C105.506 90.1041 104.058 94.0062 100.717 94.0062H75.8245L85.8482 81.3522Z" fill="white"/>
<path d="M72.0397 49.6895H96.8762C98.3531 49.6895 99.7696 50.2768 100.814 51.3222C101.858 52.3676 102.445 53.7855 102.445 55.2639C102.445 56.7424 101.858 58.1602 100.814 59.2056C99.7696 60.251 98.3531 60.8383 96.8762 60.8383H72.0397C70.5628 60.8383 69.1463 60.251 68.102 59.2056C67.0577 58.1602 66.4709 56.7424 66.4709 55.2639C66.4709 53.7855 67.0577 52.3676 68.102 51.3222C69.1463 50.2768 70.5628 49.6895 72.0397 49.6895Z" fill="white"/>
</g>
</g>
</g>
<defs>
<linearGradient id="paint0_linear_179_209" x1="182.702" y1="166.039" x2="0" y2="166.039" gradientUnits="userSpaceOnUse">
<stop stop-color="#D9D9D9"/>
<stop offset="1" stop-color="#D9D9D9" stop-opacity="0"/>
</linearGradient>
<linearGradient id="paint1_linear_179_209" x1="85.2309" y1="-8.71893" x2="85.2309" y2="194.936" gradientUnits="userSpaceOnUse">
<stop stop-color="#0B749F"/>
<stop offset="1" stop-color="#05445E"/>
</linearGradient>
<linearGradient id="paint2_linear_179_209" x1="-188.686" y1="362.283" x2="-188.686" y2="362.41" gradientUnits="userSpaceOnUse">
<stop stop-color="white"/>
<stop offset="1" stop-color="#A7ACAD"/>
</linearGradient>
<linearGradient id="paint3_linear_179_209" x1="75.3466" y1="316.314" x2="75.3466" y2="315.868" gradientUnits="userSpaceOnUse">
<stop stop-color="#A7ACAD"/>
<stop offset="1" stop-color="white"/>
</linearGradient>
<clipPath id="clip0_179_209">
<rect width="144" height="131" fill="white"/>
</clipPath>
</defs>
</svg>
