<svg width="31" height="31" viewBox="0 0 31 31" fill="none" xmlns="http://www.w3.org/2000/svg">
<path d="M0.3125 4.625C0.3125 2.13972 2.32722 0.125 4.8125 0.125H25.8125C28.2978 0.125 30.3125 2.13972 30.3125 4.625V25.625C30.3125 28.1103 28.2978 30.125 25.8125 30.125H4.8125C2.32722 30.125 0.3125 28.1103 0.3125 25.625V4.625Z" fill="#D9D9D9"/>
<path d="M14.0054 5.75L13.3518 7.98068C12.7598 8.14055 12.1951 8.37409 11.6729 8.66527L9.61084 7.53892L7.76293 9.34987L8.91227 11.3707C8.61512 11.8826 8.37669 12.4358 8.2137 13.016L5.9375 13.6565V16.2185L8.2137 16.859C8.37684 17.4392 8.61514 17.9926 8.91227 18.5043L7.76293 20.5251L9.61084 22.3361L11.6729 21.2097C12.1952 21.5009 12.7598 21.7346 13.3518 21.8943L14.0054 24.125H16.6196L17.2732 21.8943C17.8652 21.7345 18.4299 21.5009 18.9521 21.2097L21.0142 22.3361L22.8621 20.5251L21.7127 18.5043C22.0099 17.9924 22.2483 17.4392 22.4113 16.859L24.6875 16.2185V13.6565L22.4113 13.016C22.2482 12.4358 22.0099 11.8824 21.7127 11.3707L22.8621 9.34987L21.0142 7.53892L18.9521 8.66527C18.4298 8.37407 17.8652 8.14041 17.2732 7.98068L16.6196 5.75H14.0054ZM15.3124 10.6973C17.6893 10.6973 19.6394 12.6083 19.6394 14.9377C19.6394 17.267 17.6893 19.178 15.3124 19.178C12.9356 19.178 10.9855 17.267 10.9855 14.9377C10.9855 12.6083 12.9356 10.6973 15.3124 10.6973ZM15.3124 12.8175C14.1048 12.8175 13.149 13.7542 13.149 14.9377C13.149 16.1211 14.1048 17.0578 15.3124 17.0578C16.52 17.0578 17.4759 16.1211 17.4759 14.9377C17.4759 13.7542 16.52 12.8175 15.3124 12.8175Z" fill="#29539B"/>
</svg>
