<svg width="144" height="131" viewBox="0 0 144 131" fill="none" xmlns="http://www.w3.org/2000/svg">
<g clip-path="url(#clip0_219_347)">
<mask id="mask0_219_347" style="mask-type:alpha" maskUnits="userSpaceOnUse" x="0" y="0" width="183" height="167">
<rect width="182.702" height="166.039" fill="url(#paint0_linear_219_347)"/>
</mask>
<g mask="url(#mask0_219_347)">
<g opacity="0.2">
<path d="M46.3109 146.963H10.3926C7.43877 146.963 4.60591 145.788 2.51724 143.698C0.428556 141.607 -0.744852 138.771 -0.744852 135.814C-0.758326 133.861 -0.259041 131.939 0.703018 130.24L75.4354 -3.10021C75.9158 -3.96107 76.5157 -4.74934 77.2174 -5.44146C77.9137 -6.16199 78.7225 -6.76444 79.6119 -7.22527C81.305 -8.20379 83.2256 -8.71893 85.1806 -8.71893C87.1357 -8.71893 89.0563 -8.20379 90.7494 -7.22527C91.6124 -6.74899 92.4005 -6.14792 93.0882 -5.44146C93.8578 -4.70594 94.5146 -3.86065 95.0373 -2.93298L169.714 130.24C170.698 131.946 171.213 133.883 171.207 135.853C171.2 137.824 170.672 139.757 169.676 141.457C168.68 143.156 167.251 144.561 165.536 145.528C163.822 146.496 161.881 146.991 159.913 146.963H124.106C120.38 139.877 114.764 133.963 107.883 129.879C101.002 125.795 93.1238 123.701 85.125 123.829C77.1249 123.695 69.2446 125.786 62.3621 129.871C55.4795 133.955 49.8649 139.872 46.1439 146.963H46.3109Z" fill="url(#paint1_linear_219_347)"/>
<path opacity="0.27" d="M75.7168 94.0061L85.8519 81.2407H91.0865L81.731 93.9504L75.7168 94.0061Z" fill="url(#paint2_linear_219_347)"/>
<path opacity="0.22" d="M83.7351 62.399H99.4946L95.0396 67.9735L79.6699 67.5833L83.7351 62.399Z" fill="url(#paint3_linear_219_347)"/>
<path d="M83.7852 62.399L66.355 84.6966C65.4971 85.5984 65.0186 86.796 65.0186 88.0413C65.0186 89.2866 65.4971 90.4841 66.355 91.3859C67.3496 92.5141 68.6069 93.379 70.0154 93.9041C71.424 94.4292 72.9403 94.5982 74.4297 94.3961L87.015 78.8435L99.489 62.399H83.7852Z" fill="white"/>
<path d="M85.8479 81.3522H100.215C100.215 81.3522 104.392 82.3556 105.506 84.9199C106.119 86.5934 106.119 88.4305 105.506 90.1041C105.506 90.1041 104.058 94.0062 100.716 94.0062H75.8242L85.8479 81.3522Z" fill="white"/>
<path d="M72.0394 49.6895H96.876C98.3529 49.6895 99.7693 50.2768 100.814 51.3222C101.858 52.3676 102.445 53.7855 102.445 55.2639C102.445 56.7424 101.858 58.1602 100.814 59.2056C99.7693 60.251 98.3529 60.8383 96.876 60.8383H72.0394C70.5625 60.8383 69.1461 60.251 68.1017 59.2056C67.0574 58.1602 66.4707 56.7424 66.4707 55.2639C66.4707 53.7855 67.0574 52.3676 68.1017 51.3222C69.1461 50.2768 70.5625 49.6895 72.0394 49.6895Z" fill="white"/>
</g>
</g>
</g>
<defs>
<linearGradient id="paint0_linear_219_347" x1="182.702" y1="166.039" x2="0" y2="166.039" gradientUnits="userSpaceOnUse">
<stop stop-color="#D9D9D9"/>
<stop offset="1" stop-color="#D9D9D9" stop-opacity="0"/>
</linearGradient>
<linearGradient id="paint1_linear_219_347" x1="85.2308" y1="-8.71893" x2="85.2308" y2="194.936" gradientUnits="userSpaceOnUse">
<stop stop-color="#0B749F"/>
<stop offset="1" stop-color="#05445E"/>
</linearGradient>
<linearGradient id="paint2_linear_219_347" x1="-188.686" y1="362.283" x2="-188.686" y2="362.41" gradientUnits="userSpaceOnUse">
<stop stop-color="white"/>
<stop offset="1" stop-color="#A7ACAD"/>
</linearGradient>
<linearGradient id="paint3_linear_219_347" x1="75.3464" y1="316.314" x2="75.3464" y2="315.868" gradientUnits="userSpaceOnUse">
<stop stop-color="#A7ACAD"/>
<stop offset="1" stop-color="white"/>
</linearGradient>
<clipPath id="clip0_219_347">
<rect width="144" height="131" fill="white"/>
</clipPath>
</defs>
</svg>
