<svg width="80" height="80" viewBox="0 0 80 80" fill="none" xmlns="http://www.w3.org/2000/svg">
<path d="M0 12C0 5.37258 5.37258 0 12 0H68C74.6274 0 80 5.37258 80 12V68C80 74.6274 74.6274 80 68 80H12C5.37258 80 0 74.6274 0 68V12Z" fill="#D9D9D9"/>
<path d="M34.8767 62L37.0161 45.5438L24.4048 55.8143L19 45.8939L33.7507 39.8249L19.1126 33.9894L24.1796 24.5358L37.1287 34.6897L34.8767 18H45.3485L43.0965 34.6897L55.933 24.5358L60.8874 33.8727L46.2493 39.9416L61 46.0106L55.7078 55.6976L43.0965 45.5438L45.2359 62H34.8767Z" fill="#29539B"/>
</svg>
