<svg width="80" height="80" viewBox="0 0 80 80" fill="none" xmlns="http://www.w3.org/2000/svg">
<path d="M0 12C0 5.37258 5.37258 0 12 0H68C74.6274 0 80 5.37258 80 12V68C80 74.6274 74.6274 80 68 80H12C5.37258 80 0 74.6274 0 68V12Z" fill="#D9D9D9"/>
<path d="M67.1196 47.8514L67.1195 47.8514C65.6405 48.7772 63.7819 48.9078 62.1833 48.1995C60.7086 47.5462 59.6353 46.2585 59.277 44.7248L44.1645 43.527C43.7126 45.0407 42.7901 46.383 41.5216 47.3668L41.2454 47.0106L41.5216 47.3668C40.1843 48.404 38.5378 48.9844 36.8347 49.0241L36.2937 51.9756C37.6724 52.6789 38.665 53.9576 38.9721 55.4677C39.3062 57.1105 38.7833 58.8045 37.5825 59.9939C36.3831 61.1823 34.6615 61.7141 32.9835 61.4209C31.3051 61.128 29.8772 60.0454 29.1747 58.5208L29.1747 58.5207C28.4714 56.9944 28.5891 55.2281 29.4872 53.8042L29.4873 53.8042C30.3142 52.4934 31.7009 51.6315 33.2452 51.4407L33.786 48.489C31.824 47.7294 30.2546 46.2286 29.4401 44.3242L20.8205 45.9617C20.6441 47.4764 19.7734 48.8377 18.4464 49.6574L18.217 49.2862L18.4464 49.6574C17.0037 50.5486 15.204 50.688 13.6362 50.0318C12.067 49.3752 10.9262 48.0036 10.5964 46.3607L10.5963 46.3605C10.2669 44.7165 10.7938 43.0235 11.9984 41.8368C13.2013 40.6513 14.9246 40.1233 16.6022 40.421C18.1475 40.6948 19.4789 41.6377 20.2253 42.978L28.8411 41.3409C28.8625 39.0274 29.9605 36.8591 31.807 35.4362L28.7396 29.5482C27.1993 29.8031 25.612 29.3672 24.4308 28.3441C23.1487 27.2346 22.5088 25.5754 22.7296 23.9108L67.1196 47.8514ZM67.1196 47.8514C68.5107 46.9803 69.3896 45.5144 69.4901 43.9101L69.4995 43.9052L69.5 43.6018C69.5028 41.9734 68.702 40.4478 67.3549 39.4984C66.0088 38.5498 64.2789 38.2895 62.704 38.7959C61.2574 39.2607 60.0973 40.3225 59.5271 41.6933L44.4164 40.4956C44.3119 39.6437 44.0595 38.8155 43.6701 38.0465L51.3332 32.2839C52.6156 33.1574 54.2406 33.4221 55.7526 32.991C57.3919 32.5237 58.6953 31.296 59.2266 29.7031C59.7582 28.1092 59.445 26.3635 58.3947 25.0412L58.3946 25.0411C57.3448 23.7202 55.697 22.9934 53.993 23.0918C52.289 23.1902 50.7395 24.1013 49.8568 25.5356C49.0456 26.8532 48.8966 28.4528 49.4352 29.8822L41.7712 35.6447C40.7997 34.8219 39.6328 34.2454 38.3744 33.969C37.1161 33.6921 35.809 33.7246 34.5701 34.0606M67.1196 47.8514L34.5701 34.0606M34.5701 34.0606L31.5017 28.1744C32.6161 27.1096 33.1882 25.6014 33.0343 24.0669C32.8668 22.3967 31.8624 20.9215 30.3609 20.1205C28.8603 19.3197 27.0515 19.2927 25.5267 20.0472L25.5266 20.0472C24.0006 20.8025 22.95 22.2466 22.7296 23.9107L34.5701 34.0606Z" fill="#29539B" stroke="#29539B"/>
</svg>
