<svg width="31" height="31" viewBox="0 0 31 31" fill="none" xmlns="http://www.w3.org/2000/svg">
<path d="M0.8125 4.625C0.8125 2.13972 2.82722 0.125 5.3125 0.125H26.3125C28.7978 0.125 30.8125 2.13972 30.8125 4.625V25.625C30.8125 28.1103 28.7978 30.125 26.3125 30.125H5.3125C2.82722 30.125 0.8125 28.1103 0.8125 25.625V4.625Z" fill="#D9D9D9"/>
<path d="M25.9823 18.0693L25.9823 18.0693C25.4277 18.4165 24.7307 18.4654 24.1312 18.1998C23.5782 17.9548 23.1757 17.4719 23.0414 16.8968L17.3742 16.4476C17.2047 17.0153 16.8588 17.5186 16.3831 17.8876C15.8816 18.2765 15.2642 18.4941 14.6255 18.509L14.4226 19.6158C14.9396 19.8796 15.3119 20.3591 15.427 20.9254L15.2433 20.9627L15.427 20.9254C15.5523 21.5414 15.3562 22.1767 14.9059 22.6227C14.4562 23.0684 13.8106 23.2678 13.1814 23.1578C12.5519 23.048 12.0165 22.6421 11.753 22.0703L11.753 22.0703C11.4893 21.4979 11.5334 20.8355 11.8702 20.3016L11.8702 20.3016C12.1803 19.81 12.7003 19.4868 13.2795 19.4153L13.4823 18.3084C12.7465 18.0235 12.158 17.4607 11.8525 16.7466L8.62019 17.3606C8.55405 17.9287 8.22751 18.4391 7.72989 18.7465L7.63135 18.587L7.72989 18.7465C7.1889 19.0807 6.51401 19.133 5.92607 18.8869C5.33764 18.6407 4.90981 18.1263 4.78614 17.5102L4.78613 17.5102C4.66259 16.8937 4.86018 16.2588 5.31189 15.8138C5.76299 15.3692 6.40922 15.1712 7.03832 15.2829C7.61783 15.3855 8.11708 15.7391 8.39701 16.2417L11.6279 15.6278C11.6359 14.7603 12.0477 13.9472 12.7401 13.4136L11.5899 11.2056C11.0123 11.3012 10.4171 11.1377 9.97409 10.7541L25.9823 18.0693ZM25.9823 18.0693C26.5042 17.7425 26.8338 17.1925 26.8713 16.5906L26.8748 16.5888L26.875 16.4757C26.8761 15.865 26.5758 15.2929 26.0706 14.9369C25.5658 14.5812 24.9171 14.4836 24.3265 14.6735C23.784 14.8478 23.349 15.2459 23.1352 15.76L17.4686 15.3109C17.4295 14.9914 17.3348 14.6808 17.1888 14.3924L20.0625 12.2315C20.5434 12.559 21.1527 12.6583 21.7197 12.4966C22.3345 12.3214 22.8232 11.861 23.0225 11.2637C23.2218 10.666 23.1044 10.0113 22.7105 9.51546L22.7105 9.51542C22.3168 9.02006 21.6989 8.74751 21.0599 8.78442C20.4209 8.82133 19.8398 9.163 19.5088 9.70084C19.2046 10.195 19.1487 10.7948 19.3507 11.3308L16.4767 13.4918C16.1124 13.1832 15.6748 12.967 15.2028 12.8634C14.731 12.7596 14.2409 12.7717 13.7763 12.8977M25.9823 18.0693L13.7763 12.8977M13.7763 12.8977L12.6256 10.6904C13.0435 10.2911 13.2581 9.72554 13.2004 9.15009C13.1376 8.52378 12.7609 7.97055 12.1978 7.67019C11.6351 7.36987 10.9568 7.35977 10.385 7.6427L10.385 7.64271C9.81269 7.92596 9.41873 8.4675 9.3361 9.09156C9.2533 9.71578 9.49326 10.338 9.97404 10.7541L13.7763 12.8977Z" fill="#29539B" stroke="#29539B" stroke-width="0.375"/>
</svg>
