<svg width="31" height="31" viewBox="0 0 31 31" fill="none" xmlns="http://www.w3.org/2000/svg">
<rect x="0.1875" y="0.25" width="30" height="30" rx="4.5" fill="#D9D9D9"/>
<path d="M15 6.0625C10.035 6.0625 6 10.0975 6 15.0625C6 20.0275 10.035 24.0625 15 24.0625C19.965 24.0625 24 20.0275 24 15.0625C24 10.0975 19.965 6.0625 15 6.0625ZM15 21.7507C11.3074 21.7507 8.31181 18.7551 8.31181 15.0625C8.31181 11.3699 11.3074 8.37431 15 8.37431C18.6926 8.37431 21.6882 11.3699 21.6882 15.0625C21.6882 18.7551 18.6926 21.7507 15 21.7507Z" fill="#29539B" stroke="#29539B" stroke-width="0.375"/>
<path d="M13.8437 9.6394V13.9066H11.707H11.5195V14.0941V16.0309V16.2184H11.707H14.9996H15.0772L15.1322 16.1635L16.1006 15.1951L16.1555 15.1401V15.0625V9.6394V9.4519H15.968H14.0312H13.8437V9.6394Z" fill="#29539B" stroke="#29539B" stroke-width="0.375"/>
</svg>
