<svg width="31" height="31" viewBox="0 0 31 31" fill="none" xmlns="http://www.w3.org/2000/svg">
<rect x="0.0625" y="0.25" width="30" height="30" rx="4.5" fill="#D9D9D9"/>
<path d="M18.6608 18.8483C17.6546 19.8545 16.315 20.4089 14.888 20.4089C13.461 20.4089 12.1208 19.8545 11.1146 18.8483C9.0336 16.7678 9.0336 13.3822 11.1146 11.3016C12.1208 10.2954 13.461 9.74107 14.888 9.74107C16.2367 9.74107 17.5076 10.2357 18.4918 11.1398L16.7915 12.8412L23.3125 13.8108L22.343 7.2898L20.6985 8.93424C19.1245 7.44306 17.07 6.625 14.888 6.625C12.6272 6.625 10.5038 7.50329 8.90968 9.09763C5.61344 12.3939 5.61344 17.7565 8.90968 21.0537C10.5039 22.6467 12.6272 23.5256 14.888 23.5256C17.1488 23.5256 19.2716 22.6467 20.8657 21.053L21.0308 20.8873L18.8258 18.6823L18.6608 18.8483Z" fill="#29539B"/>
<path d="M16.6346 15.158C16.6346 16.1686 15.8154 16.9878 14.8049 16.9878C13.7943 16.9878 12.9751 16.1686 12.9751 15.158C12.9751 14.1475 13.7943 13.3282 14.8049 13.3282C15.8154 13.3282 16.6346 14.1475 16.6346 15.158Z" fill="#29539B"/>
</svg>
