<svg width="19" height="20" viewBox="0 0 19 20" fill="none" xmlns="http://www.w3.org/2000/svg">
<path d="M8.25538 0.875L7.60178 3.10568C7.00976 3.26555 6.44506 3.49909 5.92289 3.79027L3.86084 2.66392L2.01293 4.47487L3.16227 6.49568C2.86512 7.00756 2.62669 7.56082 2.4637 8.14099L0.1875 8.78152V11.3435L2.4637 11.984C2.62684 12.5642 2.86514 13.1176 3.16227 13.6293L2.01293 15.6501L3.86084 17.4611L5.92289 16.3347C6.44521 16.6259 7.00976 16.8596 7.60178 17.0193L8.25538 19.25H10.8696L11.5232 17.0193C12.1152 16.8595 12.6799 16.6259 13.2021 16.3347L15.2642 17.4611L17.1121 15.6501L15.9627 13.6293C16.2599 13.1174 16.4983 12.5642 16.6613 11.984L18.9375 11.3435V8.78152L16.6613 8.14099C16.4982 7.56082 16.2599 7.00741 15.9627 6.49568L17.1121 4.47487L15.2642 2.66392L13.2021 3.79027C12.6798 3.49907 12.1152 3.26541 11.5232 3.10568L10.8696 0.875H8.25538ZM9.56242 5.82226C11.9393 5.82226 13.8894 7.73335 13.8894 10.0627C13.8894 12.392 11.9393 14.303 9.56242 14.303C7.18558 14.303 5.23549 12.392 5.23549 10.0627C5.23549 7.73335 7.18558 5.82226 9.56242 5.82226ZM9.56242 7.94245C8.35482 7.94245 7.39896 8.8792 7.39896 10.0627C7.39896 11.2461 8.35482 12.1828 9.56242 12.1828C10.77 12.1828 11.7259 11.2461 11.7259 10.0627C11.7259 8.8792 10.77 7.94245 9.56242 7.94245Z" fill="#29539B"/>
</svg>
