<svg width="80" height="80" viewBox="0 0 80 80" fill="none" xmlns="http://www.w3.org/2000/svg">
<path d="M0 12C0 5.37258 5.37258 0 12 0H68C74.6274 0 80 5.37258 80 12V68C80 74.6274 74.6274 80 68 80H12C5.37258 80 0 74.6274 0 68V12Z" fill="#D9D9D9"/>
<path d="M52.9578 13.5C49.1083 13.5 45.8659 16.0884 44.8088 19.6029L50.4869 48.7466C41.3082 51.5149 43.0505 65.3558 52.9316 65.4999V65.5H52.9389C57.4804 65.5 61.2062 61.9138 61.4665 57.418L61.5 57.4182V56.9151C61.5 53.0484 58.9083 49.7892 55.4097 48.7258V30.2534C64.5884 27.4851 62.8461 13.6442 52.9651 13.5001L52.9651 13.5H52.9578Z" fill="#29539B" stroke="#29539B"/>
</svg>
