<svg width="31" height="31" viewBox="0 0 31 31" fill="none" xmlns="http://www.w3.org/2000/svg">
<path d="M0.5625 4.625C0.5625 2.13972 2.57722 0.125 5.0625 0.125H26.0625C28.5478 0.125 30.5625 2.13972 30.5625 4.625V25.625C30.5625 28.1103 28.5478 30.125 26.0625 30.125H5.0625C2.57722 30.125 0.5625 28.1103 0.5625 25.625V4.625Z" fill="#D9D9D9"/>
<path d="M14.1327 6.87499L14.1307 6.87501C10.377 6.89487 7.3125 9.94074 7.3125 13.703C7.3125 17.4643 10.3764 20.5123 14.114 20.5123C15.5115 20.5123 16.8883 20.0681 18.0561 19.2467L21.695 22.89L21.9603 23.1557L22.2256 22.89L23.3278 21.7865L23.5931 21.5208L23.3272 21.2558L19.692 17.6338C20.5123 16.4924 20.9529 15.1126 20.9529 13.6843C20.9529 9.92239 17.8883 6.875 14.1327 6.87499ZM14.114 18.2286C11.6313 18.2286 9.61305 16.2085 9.61305 13.7217C9.61305 11.2349 11.6313 9.21488 14.114 9.21488C16.5966 9.21488 18.6149 11.235 18.6149 13.7217C18.6149 16.2085 16.5966 18.2286 14.114 18.2286Z" fill="#29539B" stroke="#29539B" stroke-width="0.75"/>
</svg>
