<svg width="31" height="31" viewBox="0 0 31 31" fill="none" xmlns="http://www.w3.org/2000/svg">
<path d="M0.4375 4.625C0.4375 2.13972 2.45222 0.125 4.9375 0.125H25.9375C28.4228 0.125 30.4375 2.13972 30.4375 4.625V25.625C30.4375 28.1103 28.4228 30.125 25.9375 30.125H4.9375C2.45222 30.125 0.4375 28.1103 0.4375 25.625V4.625Z" fill="#D9D9D9"/>
<path d="M13.5163 23.375L14.3185 17.2039L9.58931 21.0554L7.5625 17.3352L13.094 15.0594L7.60473 12.871L9.50486 9.32593L14.3608 13.1336L13.5163 6.875H17.4432L16.5987 13.1336L21.4124 9.32593L23.2703 12.8273L17.781 15.1031L23.3125 17.379L21.3279 21.0116L16.5987 17.2039L17.401 23.375H13.5163Z" fill="#29539B"/>
</svg>
