<svg width="31" height="31" viewBox="0 0 31 31" fill="none" xmlns="http://www.w3.org/2000/svg">
<path d="M0.6875 4.625C0.6875 2.13972 2.70222 0.125 5.1875 0.125H26.1875C28.6728 0.125 30.6875 2.13972 30.6875 4.625V25.625C30.6875 28.1103 28.6728 30.125 26.1875 30.125H5.1875C2.70222 30.125 0.6875 28.1103 0.6875 25.625V4.625Z" fill="#D9D9D9"/>
<path d="M20.5467 5.1875C19.1031 5.1875 17.8872 6.15816 17.4908 7.4761L19.6201 18.405C16.1781 19.4431 16.8315 24.6334 20.5368 24.6875V24.6875H20.5396C22.2427 24.6875 23.6398 23.3427 23.7374 21.6568L23.75 21.6568V21.4682C23.75 20.0181 22.7781 18.796 21.4662 18.3972V11.47C24.9082 10.4319 24.2548 5.24158 20.5494 5.18752V5.1875H20.5467Z" fill="#29539B" stroke="#29539B" stroke-width="0.375"/>
</svg>
