<svg width="80" height="80" viewBox="0 0 80 80" fill="none" xmlns="http://www.w3.org/2000/svg">
<path d="M0 12C0 5.37258 5.37258 0 12 0H68C74.6274 0 80 5.37258 80 12V68C80 74.6274 74.6274 80 68 80H12C5.37258 80 0 74.6274 0 68V12Z" fill="#D9D9D9"/>
<path d="M36.5143 15L34.7714 20.9485C33.1927 21.3748 31.6868 21.9976 30.2944 22.7741L24.7956 19.7704L19.8678 24.5997L22.9327 29.9885C22.1403 31.3535 21.5045 32.8288 21.0699 34.376L15 36.0841V42.9159L21.0699 44.624C21.5049 46.1712 22.1404 47.6469 22.9327 49.0115L19.8678 54.4003L24.7956 59.2296L30.2944 56.2259C31.6872 57.0025 33.1927 57.6256 34.7714 58.0515L36.5143 64H43.4857L45.2286 58.0515C46.8073 57.6252 48.3132 57.0024 49.7056 56.2259L55.2044 59.2296L60.1322 54.4003L57.0673 49.0115C57.8597 47.6465 58.4955 46.1712 58.9301 44.624L65 42.9159V36.0841L58.9301 34.376C58.4951 32.8288 57.8596 31.3531 57.0673 29.9885L60.1322 24.5997L55.2044 19.7704L49.7056 22.7741C48.3128 21.9975 46.8073 21.3744 45.2286 20.9485L43.4857 15H36.5143ZM39.9998 28.1927C46.338 28.1927 51.5383 33.2889 51.5383 39.5004C51.5383 45.7119 46.338 50.8081 39.9998 50.8081C33.6616 50.8081 28.4613 45.7119 28.4613 39.5004C28.4613 33.2889 33.6616 28.1927 39.9998 28.1927ZM39.9998 33.8465C36.7795 33.8465 34.2306 36.3445 34.2306 39.5004C34.2306 42.6563 36.7795 45.1543 39.9998 45.1543C43.2201 45.1543 45.769 42.6563 45.769 39.5004C45.769 36.3445 43.2201 33.8465 39.9998 33.8465Z" fill="#29539B"/>
</svg>
