<svg width="80" height="80" viewBox="0 0 80 80" fill="none" xmlns="http://www.w3.org/2000/svg">
<path d="M0 12C0 5.37258 5.37258 0 12 0H68C74.6274 0 80 5.37258 80 12V68C80 74.6274 74.6274 80 68 80H12C5.37258 80 0 74.6274 0 68V12Z" fill="#D9D9D9"/>
<path d="M17.5 33.9366L17.5 33.9378C17.5143 39.9407 20.648 45.4922 25.745 48.5306L25.7458 48.5311L37.4644 55.4877V65V65.5H37.9644H44.1074H44.6074V65V48.5574L52.9532 43.8415L52.9532 43.8414C55.5452 42.3763 57.7042 40.2326 59.2064 37.634C60.7091 35.0355 61.5005 32.076 61.5 29.0626C61.5 29.0626 61.5 29.0625 61.5 29.0625V25.9373V25.4373H61H54.857H54.357V25.9373V29.0626C54.357 30.785 53.9044 32.4763 53.0466 33.96L53.0465 33.9602C52.1893 35.4439 50.9579 36.6663 49.4817 37.5022L44.6074 40.2532V15V14.5H44.1074H37.9644H37.4644V15V28.3882L37.1025 28.1775L37.1022 28.1773C35.652 27.3342 34.4454 26.1153 33.6055 24.644C32.7655 23.172 32.3225 21.5 32.3215 19.7966V16.5625V16.0625H31.8215H25.6785H25.1785V16.5625V19.7969V19.797C25.1791 22.7755 25.953 25.7014 27.4232 28.2781C28.8927 30.8554 31.007 32.9923 33.5513 34.4718L33.5518 34.4721L37.4644 36.7413V47.0911L29.351 42.2736L29.3509 42.2735C26.4402 40.5465 24.6454 37.3737 24.643 33.9374V30.6255V30.1255H24.143H18H17.5L17.5 30.6255L17.5 33.9366Z" fill="#29539B" stroke="#29539B"/>
</svg>
