<svg width="31" height="31" viewBox="0 0 31 31" fill="none" xmlns="http://www.w3.org/2000/svg">
<rect x="0.8125" y="0.125" width="30" height="30" rx="4.5" fill="#D9D9D9"/>
<path d="M19.4108 18.7233C18.4046 19.7295 17.065 20.2839 15.638 20.2839C14.211 20.2839 12.8708 19.7295 11.8646 18.7233C9.7836 16.6428 9.7836 13.2572 11.8646 11.1766C12.8708 10.1704 14.211 9.61607 15.638 9.61607C16.9867 9.61607 18.2576 10.1107 19.2418 11.0148L17.5415 12.7162L24.0625 13.6858L23.093 7.1648L21.4485 8.80924C19.8745 7.31806 17.82 6.5 15.638 6.5C13.3772 6.5 11.2538 7.37829 9.65968 8.97263C6.36344 12.2689 6.36344 17.6315 9.65968 20.9287C11.2539 22.5217 13.3772 23.4006 15.638 23.4006C17.8988 23.4006 20.0216 22.5217 21.6157 20.928L21.7808 20.7623L19.5758 18.5573L19.4108 18.7233Z" fill="#29539B"/>
<path d="M17.3846 15.033C17.3846 16.0436 16.5654 16.8628 15.5549 16.8628C14.5443 16.8628 13.7251 16.0436 13.7251 15.033C13.7251 14.0225 14.5443 13.2032 15.5549 13.2032C16.5654 13.2032 17.3846 14.0225 17.3846 15.033Z" fill="#29539B"/>
</svg>
