<svg width="31" height="31" viewBox="0 0 31 31" fill="none" xmlns="http://www.w3.org/2000/svg">
<rect x="0.9375" y="0.125" width="30" height="30" rx="4.5" fill="#D9D9D9"/>
<path d="M15.75 5.9375C10.785 5.9375 6.75 9.97254 6.75 14.9375C6.75 19.9025 10.785 23.9375 15.75 23.9375C20.715 23.9375 24.75 19.9025 24.75 14.9375C24.75 9.97255 20.715 5.9375 15.75 5.9375ZM15.75 21.6257C12.0574 21.6257 9.06181 18.6301 9.06181 14.9375C9.06181 11.2449 12.0574 8.24931 15.75 8.24931C19.4426 8.24931 22.4382 11.2449 22.4382 14.9375C22.4382 18.6301 19.4426 21.6257 15.75 21.6257Z" fill="#29539B" stroke="#29539B" stroke-width="0.375"/>
<path d="M14.5937 9.5144V13.7816H12.457H12.2695V13.9691V15.9059V16.0934H12.457H15.7496H15.8272L15.8822 16.0385L16.8506 15.0701L16.9055 15.0151V14.9375V9.5144V9.3269H16.718H14.7812H14.5937V9.5144Z" fill="#29539B" stroke="#29539B" stroke-width="0.375"/>
</svg>
