<svg width="18" height="20" viewBox="0 0 18 20" fill="none" xmlns="http://www.w3.org/2000/svg">
<path d="M0.749999 7.97621L0.750001 7.97666C0.755378 10.2278 1.93048 12.3096 3.84187 13.449L3.84217 13.4492L8.23666 16.0579V19.625V19.8125H8.42416H10.7278H10.9153V19.625V13.459L14.0449 11.6906L14.045 11.6905C15.017 11.1411 15.8266 10.3372 16.3899 9.36277C16.9534 8.38831 17.2502 7.27851 17.25 6.14847C17.25 6.14846 17.25 6.14845 17.25 6.14844V4.97647V4.78897H17.0625H14.7589H14.5714V4.97647V6.14847C14.5714 6.79439 14.4016 7.42862 14.08 7.98501L14.0799 7.98506C13.7585 8.5414 13.2968 8.99979 12.7433 9.31326C12.7432 9.31329 12.7432 9.31331 12.7431 9.31334L10.9153 10.345V0.875V0.6875H10.7278H8.42416H8.23666V0.875V5.89559L8.10095 5.81655L8.10082 5.81648C7.55702 5.50034 7.10454 5.04324 6.78956 4.49151C6.47457 3.93953 6.30845 3.3125 6.30806 2.67372V1.46093V1.27343H6.12056H3.81695H3.62945V1.46093V2.67384V2.67387C3.62966 3.79081 3.91987 4.88801 4.47119 5.85428C5.02228 6.82077 5.81512 7.62211 6.76925 8.17694L6.76944 8.17705L8.23667 9.02799V12.9092L5.19414 11.1026L5.19409 11.1026C4.10258 10.4549 3.42954 9.26515 3.42861 7.97652V6.73456V6.54706H3.24111H0.937505H0.750006L0.750005 6.73456L0.749999 7.97621Z" fill="#29539B" stroke="#29539B" stroke-width="0.375"/>
</svg>
