<svg width="18" height="18" viewBox="0 0 18 18" fill="none" xmlns="http://www.w3.org/2000/svg">
<path d="M7.38268 0.999995L7.3807 1.00001C3.627 1.01987 0.5625 4.06574 0.5625 7.82803C0.5625 11.5893 3.62637 14.6373 7.364 14.6373C8.76154 14.6373 10.1383 14.1931 11.3061 13.3717L14.945 17.015L15.2103 17.2807L15.4756 17.015L16.5778 15.9115L16.8431 15.6458L16.5772 15.3808L12.942 11.7588C13.7623 10.6174 14.2029 9.23757 14.2029 7.80932C14.2029 4.04739 11.1383 1 7.38268 0.999995ZM7.36397 12.3536C4.88131 12.3536 2.86305 10.3335 2.86305 7.84673C2.86305 5.35994 4.88134 3.33988 7.36397 3.33988C9.8466 3.33988 11.8649 5.35997 11.8649 7.84673C11.8649 10.3335 9.8466 12.3536 7.36397 12.3536Z" fill="#29539B" stroke="#29539B" stroke-width="0.75"/>
</svg>
